<mxfile host="Electron" agent="Mozilla/5.0 (Windows NT 10.0; Win64; x64) AppleWebKit/537.36 (KHTML, like Gecko) draw.io/27.0.9 Chrome/134.0.6998.205 Electron/35.4.0 Safari/537.36" version="27.0.9">
  <diagram id="_kltjX0dZ1afKoBh7RQo" name="Version 1 (limited spins)">
    <mxGraphModel dx="2907" dy="2923" grid="1" gridSize="10" guides="1" tooltips="1" connect="1" arrows="1" fold="1" page="1" pageScale="1" pageWidth="850" pageHeight="1100" math="0" shadow="0">
      <root>
        <mxCell id="0" />
        <mxCell id="1" parent="0" />
        <mxCell id="4SKJvG_wusuK_0YECNGo-34" value="Spin finished page" style="rounded=0;whiteSpace=wrap;html=1;fillColor=#f5f5f5;fontColor=#333333;strokeColor=#666666;align=left;verticalAlign=top;" parent="1" vertex="1">
          <mxGeometry x="1977.5" y="1930" width="680" height="550" as="geometry" />
        </mxCell>
        <mxCell id="4SKJvG_wusuK_0YECNGo-35" style="edgeStyle=orthogonalEdgeStyle;rounded=0;orthogonalLoop=1;jettySize=auto;html=1;entryX=0.5;entryY=0;entryDx=0;entryDy=0;" parent="1" source="4SKJvG_wusuK_0YECNGo-31" target="4SKJvG_wusuK_0YECNGo-34" edge="1">
          <mxGeometry relative="1" as="geometry" />
        </mxCell>
        <mxCell id="4SKJvG_wusuK_0YECNGo-36" value="spin finished" style="edgeLabel;html=1;align=center;verticalAlign=middle;resizable=0;points=[];" parent="4SKJvG_wusuK_0YECNGo-35" vertex="1" connectable="0">
          <mxGeometry x="0.1175" y="-2" relative="1" as="geometry">
            <mxPoint as="offset" />
          </mxGeometry>
        </mxCell>
        <mxCell id="4SKJvG_wusuK_0YECNGo-31" value="Roulette spining page" style="rounded=0;whiteSpace=wrap;html=1;fillColor=#f5f5f5;fontColor=#333333;strokeColor=#666666;align=left;verticalAlign=top;" parent="1" vertex="1">
          <mxGeometry x="1972.5" y="1250" width="680" height="550" as="geometry" />
        </mxCell>
        <mxCell id="4SKJvG_wusuK_0YECNGo-29" style="edgeStyle=orthogonalEdgeStyle;rounded=0;orthogonalLoop=1;jettySize=auto;html=1;exitX=0.75;exitY=0;exitDx=0;exitDy=0;entryX=0.75;entryY=1;entryDx=0;entryDy=0;" parent="1" source="4SKJvG_wusuK_0YECNGo-13" target="4SKJvG_wusuK_0YECNGo-10" edge="1">
          <mxGeometry relative="1" as="geometry" />
        </mxCell>
        <mxCell id="4SKJvG_wusuK_0YECNGo-30" value="edit button clicked" style="edgeLabel;html=1;align=center;verticalAlign=middle;resizable=0;points=[];" parent="4SKJvG_wusuK_0YECNGo-29" vertex="1" connectable="0">
          <mxGeometry x="0.1857" y="-5" relative="1" as="geometry">
            <mxPoint as="offset" />
          </mxGeometry>
        </mxCell>
        <mxCell id="4SKJvG_wusuK_0YECNGo-32" style="edgeStyle=orthogonalEdgeStyle;rounded=0;orthogonalLoop=1;jettySize=auto;html=1;entryX=0.5;entryY=0;entryDx=0;entryDy=0;" parent="1" source="4SKJvG_wusuK_0YECNGo-13" target="4SKJvG_wusuK_0YECNGo-31" edge="1">
          <mxGeometry relative="1" as="geometry" />
        </mxCell>
        <mxCell id="4SKJvG_wusuK_0YECNGo-33" value="spin button clicked" style="edgeLabel;html=1;align=center;verticalAlign=middle;resizable=0;points=[];" parent="4SKJvG_wusuK_0YECNGo-32" vertex="1" connectable="0">
          <mxGeometry x="-0.1077" y="-12" relative="1" as="geometry">
            <mxPoint as="offset" />
          </mxGeometry>
        </mxCell>
        <mxCell id="4SKJvG_wusuK_0YECNGo-13" value="Routelle page" style="rounded=0;whiteSpace=wrap;html=1;fillColor=#f5f5f5;fontColor=#333333;strokeColor=#666666;align=left;verticalAlign=top;" parent="1" vertex="1">
          <mxGeometry x="1972.5" y="570" width="680" height="550" as="geometry" />
        </mxCell>
        <mxCell id="4SKJvG_wusuK_0YECNGo-27" style="edgeStyle=orthogonalEdgeStyle;rounded=0;orthogonalLoop=1;jettySize=auto;html=1;entryX=0.5;entryY=0;entryDx=0;entryDy=0;" parent="1" source="4SKJvG_wusuK_0YECNGo-10" target="4SKJvG_wusuK_0YECNGo-13" edge="1">
          <mxGeometry relative="1" as="geometry" />
        </mxCell>
        <mxCell id="4SKJvG_wusuK_0YECNGo-28" value="save changes button clicked" style="edgeLabel;html=1;align=center;verticalAlign=middle;resizable=0;points=[];" parent="4SKJvG_wusuK_0YECNGo-27" vertex="1" connectable="0">
          <mxGeometry x="-0.2296" y="5" relative="1" as="geometry">
            <mxPoint as="offset" />
          </mxGeometry>
        </mxCell>
        <mxCell id="4SKJvG_wusuK_0YECNGo-10" value="Roulette configuration page" style="rounded=0;whiteSpace=wrap;html=1;fillColor=#f5f5f5;fontColor=#333333;strokeColor=#666666;align=left;verticalAlign=top;" parent="1" vertex="1">
          <mxGeometry x="1970" y="-45" width="680" height="550" as="geometry" />
        </mxCell>
        <mxCell id="4SKJvG_wusuK_0YECNGo-21" style="edgeStyle=orthogonalEdgeStyle;rounded=0;orthogonalLoop=1;jettySize=auto;html=1;entryX=0;entryY=0.5;entryDx=0;entryDy=0;" parent="1" source="4SKJvG_wusuK_0YECNGo-4" target="4SKJvG_wusuK_0YECNGo-16" edge="1">
          <mxGeometry relative="1" as="geometry" />
        </mxCell>
        <mxCell id="4SKJvG_wusuK_0YECNGo-4" value="Account page" style="rounded=0;whiteSpace=wrap;html=1;fillColor=#f5f5f5;fontColor=#333333;strokeColor=#666666;align=left;verticalAlign=top;" parent="1" vertex="1">
          <mxGeometry x="1030" y="-830" width="680" height="550" as="geometry" />
        </mxCell>
        <mxCell id="4SKJvG_wusuK_0YECNGo-6" style="edgeStyle=orthogonalEdgeStyle;rounded=0;orthogonalLoop=1;jettySize=auto;html=1;" parent="1" source="4SKJvG_wusuK_0YECNGo-1" target="4SKJvG_wusuK_0YECNGo-4" edge="1">
          <mxGeometry relative="1" as="geometry" />
        </mxCell>
        <mxCell id="4SKJvG_wusuK_0YECNGo-7" value="My account menu item clicked" style="edgeLabel;html=1;align=center;verticalAlign=middle;resizable=0;points=[];" parent="4SKJvG_wusuK_0YECNGo-6" vertex="1" connectable="0">
          <mxGeometry x="0.0575" y="3" relative="1" as="geometry">
            <mxPoint y="-1" as="offset" />
          </mxGeometry>
        </mxCell>
        <mxCell id="4SKJvG_wusuK_0YECNGo-8" style="edgeStyle=orthogonalEdgeStyle;rounded=0;orthogonalLoop=1;jettySize=auto;html=1;exitX=0;exitY=0.75;exitDx=0;exitDy=0;entryX=1;entryY=0.75;entryDx=0;entryDy=0;" parent="1" source="4SKJvG_wusuK_0YECNGo-1" target="GNKquX3tjcensdPC8M7u-1" edge="1">
          <mxGeometry relative="1" as="geometry" />
        </mxCell>
        <mxCell id="4SKJvG_wusuK_0YECNGo-9" value="logout clicked" style="edgeLabel;html=1;align=center;verticalAlign=middle;resizable=0;points=[];" parent="4SKJvG_wusuK_0YECNGo-8" vertex="1" connectable="0">
          <mxGeometry x="0.2366" y="4" relative="1" as="geometry">
            <mxPoint as="offset" />
          </mxGeometry>
        </mxCell>
        <mxCell id="4SKJvG_wusuK_0YECNGo-11" style="edgeStyle=orthogonalEdgeStyle;rounded=0;orthogonalLoop=1;jettySize=auto;html=1;" parent="1" source="4SKJvG_wusuK_0YECNGo-1" edge="1">
          <mxGeometry relative="1" as="geometry">
            <mxPoint x="1960" y="230" as="targetPoint" />
          </mxGeometry>
        </mxCell>
        <mxCell id="4SKJvG_wusuK_0YECNGo-12" value="configure roulette clicked" style="edgeLabel;html=1;align=center;verticalAlign=middle;resizable=0;points=[];" parent="4SKJvG_wusuK_0YECNGo-11" vertex="1" connectable="0">
          <mxGeometry x="0.3781" y="4" relative="1" as="geometry">
            <mxPoint x="-1" as="offset" />
          </mxGeometry>
        </mxCell>
        <mxCell id="4SKJvG_wusuK_0YECNGo-1" value="Initial page" style="rounded=0;whiteSpace=wrap;html=1;fillColor=#f5f5f5;fontColor=#333333;strokeColor=#666666;align=left;verticalAlign=top;" parent="1" vertex="1">
          <mxGeometry x="1030" y="-45" width="680" height="550" as="geometry" />
        </mxCell>
        <mxCell id="4SKJvG_wusuK_0YECNGo-2" style="edgeStyle=orthogonalEdgeStyle;rounded=0;orthogonalLoop=1;jettySize=auto;html=1;entryX=0;entryY=0.5;entryDx=0;entryDy=0;" parent="1" source="GNKquX3tjcensdPC8M7u-1" target="4SKJvG_wusuK_0YECNGo-1" edge="1">
          <mxGeometry relative="1" as="geometry" />
        </mxCell>
        <mxCell id="4SKJvG_wusuK_0YECNGo-3" value="login suceeded (new account)" style="edgeLabel;html=1;align=center;verticalAlign=middle;resizable=0;points=[];" parent="4SKJvG_wusuK_0YECNGo-2" vertex="1" connectable="0">
          <mxGeometry x="0.2478" y="-8" relative="1" as="geometry">
            <mxPoint x="-1" as="offset" />
          </mxGeometry>
        </mxCell>
        <mxCell id="4SKJvG_wusuK_0YECNGo-14" style="edgeStyle=orthogonalEdgeStyle;rounded=0;orthogonalLoop=1;jettySize=auto;html=1;entryX=0;entryY=0.5;entryDx=0;entryDy=0;" parent="1" source="GNKquX3tjcensdPC8M7u-1" target="4SKJvG_wusuK_0YECNGo-13" edge="1">
          <mxGeometry relative="1" as="geometry">
            <Array as="points">
              <mxPoint x="380" y="850" />
              <mxPoint x="1346" y="850" />
              <mxPoint x="1346" y="845" />
            </Array>
          </mxGeometry>
        </mxCell>
        <mxCell id="4SKJvG_wusuK_0YECNGo-15" value="login succeeded (existing account)" style="edgeLabel;html=1;align=center;verticalAlign=middle;resizable=0;points=[];" parent="4SKJvG_wusuK_0YECNGo-14" vertex="1" connectable="0">
          <mxGeometry x="0.181" y="-5" relative="1" as="geometry">
            <mxPoint as="offset" />
          </mxGeometry>
        </mxCell>
        <mxCell id="GNKquX3tjcensdPC8M7u-1" value="Login page" style="rounded=0;whiteSpace=wrap;html=1;fillColor=#f5f5f5;fontColor=#333333;strokeColor=#666666;align=left;verticalAlign=top;" parent="1" vertex="1">
          <mxGeometry x="40" y="-45" width="680" height="550" as="geometry" />
        </mxCell>
        <mxCell id="xZkq6OMs5n-9DprCI7Dk-1" value="" style="rounded=0;whiteSpace=wrap;html=1;" parent="1" vertex="1">
          <mxGeometry x="90" y="-5" width="570" height="440" as="geometry" />
        </mxCell>
        <mxCell id="rR4SrOsn7YcrLf4KnVZ0-2" value="" style="rounded=0;whiteSpace=wrap;html=1;" parent="1" vertex="1">
          <mxGeometry x="90" y="-5" width="280" height="440" as="geometry" />
        </mxCell>
        <mxCell id="rR4SrOsn7YcrLf4KnVZ0-4" value="" style="ellipse;whiteSpace=wrap;html=1;aspect=fixed;" parent="1" vertex="1">
          <mxGeometry x="140" y="35" width="360" height="360" as="geometry" />
        </mxCell>
        <mxCell id="rR4SrOsn7YcrLf4KnVZ0-7" value="" style="triangle;whiteSpace=wrap;html=1;rotation=-120;" parent="1" vertex="1">
          <mxGeometry x="290" y="165" width="60" height="30" as="geometry" />
        </mxCell>
        <mxCell id="rR4SrOsn7YcrLf4KnVZ0-6" value="" style="ellipse;whiteSpace=wrap;html=1;aspect=fixed;" parent="1" vertex="1">
          <mxGeometry x="300" y="175" width="80" height="80" as="geometry" />
        </mxCell>
        <mxCell id="rR4SrOsn7YcrLf4KnVZ0-5" value="" style="rounded=0;whiteSpace=wrap;html=1;" parent="1" vertex="1">
          <mxGeometry x="370" y="-5" width="290" height="440" as="geometry" />
        </mxCell>
        <mxCell id="rR4SrOsn7YcrLf4KnVZ0-1" value="Log-in with Google" style="html=1;shadow=0;dashed=0;shape=mxgraph.bootstrap.rrect;rSize=5;strokeColor=none;strokeWidth=1;fillColor=#DB2843;fontColor=#FFFFFF;whiteSpace=wrap;align=center;verticalAlign=middle;spacingLeft=0;fontStyle=0;fontSize=16;spacing=5;" parent="1" vertex="1">
          <mxGeometry x="440" y="195" width="175" height="40" as="geometry" />
        </mxCell>
        <mxCell id="rR4SrOsn7YcrLf4KnVZ0-8" value="&lt;h1 style=&quot;margin-top: 0px;&quot;&gt;TODOulette&lt;/h1&gt;" style="text;html=1;whiteSpace=wrap;overflow=hidden;rounded=0;" parent="1" vertex="1">
          <mxGeometry x="455" y="35" width="140" height="40" as="geometry" />
        </mxCell>
        <mxCell id="RsYt-immf06iiw5ztlk2-2" value="" style="rounded=0;whiteSpace=wrap;html=1;" parent="1" vertex="1">
          <mxGeometry x="1100" y="10" width="570" height="440" as="geometry" />
        </mxCell>
        <mxCell id="RsYt-immf06iiw5ztlk2-3" value="" style="rounded=0;whiteSpace=wrap;html=1;" parent="1" vertex="1">
          <mxGeometry x="1100" y="10" width="120" height="440" as="geometry" />
        </mxCell>
        <mxCell id="RsYt-immf06iiw5ztlk2-4" value="&lt;h1 style=&quot;margin-top: 0px;&quot;&gt;&lt;font style=&quot;font-size: 18px;&quot;&gt;TODOulette&lt;/font&gt;&lt;/h1&gt;" style="text;html=1;whiteSpace=wrap;overflow=hidden;rounded=0;" parent="1" vertex="1">
          <mxGeometry x="1120" y="10" width="140" height="40" as="geometry" />
        </mxCell>
        <mxCell id="RsYt-immf06iiw5ztlk2-5" value="Configure roulette" style="html=1;shadow=0;dashed=0;shape=mxgraph.bootstrap.rrect;rSize=5;strokeColor=none;strokeWidth=1;fillColor=#33A64C;fontColor=#FFFFFF;whiteSpace=wrap;align=center;verticalAlign=middle;spacingLeft=0;fontStyle=0;fontSize=16;spacing=5;" parent="1" vertex="1">
          <mxGeometry x="1370" y="240" width="160" height="40" as="geometry" />
        </mxCell>
        <mxCell id="mvWhSziDv5Osz0h54IR4-1" value="Configure your roulette to get started" style="text;html=1;align=center;verticalAlign=middle;whiteSpace=wrap;rounded=0;" parent="1" vertex="1">
          <mxGeometry x="1360" y="190" width="180" height="30" as="geometry" />
        </mxCell>
        <mxCell id="mvWhSziDv5Osz0h54IR4-3" value="Logout" style="text;html=1;align=center;verticalAlign=middle;whiteSpace=wrap;rounded=0;" parent="1" vertex="1">
          <mxGeometry x="1130" y="410" width="60" height="30" as="geometry" />
        </mxCell>
        <mxCell id="mvWhSziDv5Osz0h54IR4-20" value="My account" style="text;html=1;align=center;verticalAlign=middle;whiteSpace=wrap;rounded=0;" parent="1" vertex="1">
          <mxGeometry x="1130" y="380" width="60" height="30" as="geometry" />
        </mxCell>
        <mxCell id="mvWhSziDv5Osz0h54IR4-21" value="" style="rounded=0;whiteSpace=wrap;html=1;" parent="1" vertex="1">
          <mxGeometry x="2040" y="5" width="570" height="440" as="geometry" />
        </mxCell>
        <mxCell id="mvWhSziDv5Osz0h54IR4-22" value="" style="rounded=0;whiteSpace=wrap;html=1;" parent="1" vertex="1">
          <mxGeometry x="2040" y="5" width="120" height="440" as="geometry" />
        </mxCell>
        <mxCell id="mvWhSziDv5Osz0h54IR4-24" value="Save changes" style="html=1;shadow=0;dashed=0;shape=mxgraph.bootstrap.rrect;rSize=5;strokeColor=none;strokeWidth=1;fillColor=#33A64C;fontColor=#FFFFFF;whiteSpace=wrap;align=center;verticalAlign=middle;spacingLeft=0;fontStyle=0;fontSize=16;spacing=5;" parent="1" vertex="1">
          <mxGeometry x="2440" y="385" width="130" height="40" as="geometry" />
        </mxCell>
        <mxCell id="mvWhSziDv5Osz0h54IR4-32" value="Name" style="fillColor=none;strokeColor=none;align=left;fontSize=14;" parent="1" vertex="1">
          <mxGeometry x="2200" y="85" width="260" height="40" as="geometry" />
        </mxCell>
        <mxCell id="mvWhSziDv5Osz0h54IR4-33" value="Roulette 1" style="html=1;shadow=0;dashed=0;shape=mxgraph.bootstrap.rrect;rSize=5;fillColor=none;strokeColor=#999999;align=left;spacing=15;fontSize=14;fontColor=#6C767D;" parent="1" vertex="1">
          <mxGeometry x="2200" y="125" width="370" height="30" as="geometry" />
        </mxCell>
        <mxCell id="mvWhSziDv5Osz0h54IR4-34" value="One item per line" style="fillColor=none;strokeColor=none;align=left;spacing=2;fontSize=12;fontColor=#999999;" parent="1" vertex="1">
          <mxGeometry x="2200" y="175" width="260" height="30" as="geometry" />
        </mxCell>
        <mxCell id="mvWhSziDv5Osz0h54IR4-37" value="Cook dinner&lt;div&gt;Read a book&lt;/div&gt;&lt;div&gt;Watch a romance movie&lt;/div&gt;" style="html=1;shadow=0;dashed=0;shape=mxgraph.bootstrap.rrect;rSize=5;strokeColor=#999999;strokeWidth=1;fillColor=#FFFFFF;fontColor=#6C767D;whiteSpace=wrap;align=left;verticalAlign=top;spacingLeft=10;fontSize=14;spacing=10;" parent="1" vertex="1">
          <mxGeometry x="2200" y="205" width="370" height="160" as="geometry" />
        </mxCell>
        <mxCell id="mvWhSziDv5Osz0h54IR4-38" value="Items" style="fillColor=none;strokeColor=none;align=left;fontSize=14;" parent="1" vertex="1">
          <mxGeometry x="2200" y="150" width="50" height="40" as="geometry" />
        </mxCell>
        <mxCell id="mvWhSziDv5Osz0h54IR4-39" value="" style="rounded=0;whiteSpace=wrap;html=1;" parent="1" vertex="1">
          <mxGeometry x="2032.5" y="640" width="570" height="440" as="geometry" />
        </mxCell>
        <mxCell id="mvWhSziDv5Osz0h54IR4-40" value="" style="rounded=0;whiteSpace=wrap;html=1;" parent="1" vertex="1">
          <mxGeometry x="2032.5" y="640" width="120" height="440" as="geometry" />
        </mxCell>
        <mxCell id="mvWhSziDv5Osz0h54IR4-42" value="Edit" style="html=1;shadow=0;dashed=0;shape=mxgraph.bootstrap.rrect;rSize=5;strokeColor=#001DBC;strokeWidth=1;fillColor=#0050ef;whiteSpace=wrap;align=center;verticalAlign=middle;spacingLeft=0;fontStyle=0;fontSize=16;spacing=5;fontColor=#ffffff;" parent="1" vertex="1">
          <mxGeometry x="2422.5" y="995" width="130" height="40" as="geometry" />
        </mxCell>
        <mxCell id="mvWhSziDv5Osz0h54IR4-58" value="" style="ellipse;whiteSpace=wrap;html=1;aspect=fixed;" parent="1" vertex="1">
          <mxGeometry x="2269.5" y="752" width="216" height="216" as="geometry" />
        </mxCell>
        <mxCell id="mvWhSziDv5Osz0h54IR4-59" value="Spin (3)" style="html=1;shadow=0;dashed=0;shape=mxgraph.bootstrap.rrect;rSize=5;strokeColor=none;strokeWidth=1;fillColor=#33A64C;fontColor=#FFFFFF;whiteSpace=wrap;align=center;verticalAlign=middle;spacingLeft=0;fontStyle=0;fontSize=16;spacing=5;" parent="1" vertex="1">
          <mxGeometry x="2212.5" y="995" width="200" height="40" as="geometry" />
        </mxCell>
        <mxCell id="mvWhSziDv5Osz0h54IR4-60" value="" style="ellipse;whiteSpace=wrap;html=1;aspect=fixed;" parent="1" vertex="1">
          <mxGeometry x="2350" y="832.5" width="55" height="55" as="geometry" />
        </mxCell>
        <mxCell id="mvWhSziDv5Osz0h54IR4-77" value="&lt;h1 style=&quot;margin-top: 0px;&quot;&gt;&lt;font style=&quot;font-size: 18px;&quot;&gt;&lt;font style=&quot;&quot;&gt;Roulette &lt;/font&gt;1&lt;/font&gt;&lt;/h1&gt;" style="text;html=1;whiteSpace=wrap;overflow=hidden;rounded=0;" parent="1" vertex="1">
          <mxGeometry x="1230" y="20" width="180" height="40" as="geometry" />
        </mxCell>
        <mxCell id="mvWhSziDv5Osz0h54IR4-78" value="&lt;h1 style=&quot;margin-top: 0px;&quot;&gt;&lt;font style=&quot;font-size: 18px;&quot;&gt;&lt;font style=&quot;&quot;&gt;Roulette &lt;/font&gt;1&lt;/font&gt;&lt;/h1&gt;" style="text;html=1;whiteSpace=wrap;overflow=hidden;rounded=0;" parent="1" vertex="1">
          <mxGeometry x="2177.5" y="15" width="180" height="40" as="geometry" />
        </mxCell>
        <mxCell id="mvWhSziDv5Osz0h54IR4-80" value="&lt;h1 style=&quot;margin-top: 0px;&quot;&gt;&lt;font style=&quot;font-size: 18px;&quot;&gt;&lt;font style=&quot;&quot;&gt;Roulette &lt;/font&gt;1&lt;/font&gt;&lt;/h1&gt;" style="text;html=1;whiteSpace=wrap;overflow=hidden;rounded=0;" parent="1" vertex="1">
          <mxGeometry x="2170" y="650" width="180" height="40" as="geometry" />
        </mxCell>
        <mxCell id="mvWhSziDv5Osz0h54IR4-82" value="" style="ellipse;whiteSpace=wrap;html=1;aspect=fixed;" parent="1" vertex="1">
          <mxGeometry x="1100" y="20" width="20" height="20" as="geometry" />
        </mxCell>
        <mxCell id="mvWhSziDv5Osz0h54IR4-83" value="" style="endArrow=none;html=1;rounded=0;" parent="1" edge="1">
          <mxGeometry width="50" height="50" relative="1" as="geometry">
            <mxPoint x="1236" y="67" as="sourcePoint" />
            <mxPoint x="1641" y="66" as="targetPoint" />
          </mxGeometry>
        </mxCell>
        <mxCell id="mvWhSziDv5Osz0h54IR4-85" value="" style="endArrow=none;html=1;rounded=0;" parent="1" edge="1">
          <mxGeometry width="50" height="50" relative="1" as="geometry">
            <mxPoint x="1106" y="361" as="sourcePoint" />
            <mxPoint x="1214" y="360" as="targetPoint" />
          </mxGeometry>
        </mxCell>
        <mxCell id="mvWhSziDv5Osz0h54IR4-86" value="" style="endArrow=none;html=1;rounded=0;" parent="1" edge="1">
          <mxGeometry width="50" height="50" relative="1" as="geometry">
            <mxPoint x="2177.5" y="66" as="sourcePoint" />
            <mxPoint x="2582.5" y="65" as="targetPoint" />
          </mxGeometry>
        </mxCell>
        <mxCell id="mvWhSziDv5Osz0h54IR4-88" value="" style="endArrow=none;html=1;rounded=0;" parent="1" edge="1">
          <mxGeometry width="50" height="50" relative="1" as="geometry">
            <mxPoint x="2170" y="701" as="sourcePoint" />
            <mxPoint x="2575" y="700" as="targetPoint" />
          </mxGeometry>
        </mxCell>
        <mxCell id="mvWhSziDv5Osz0h54IR4-89" value="" style="rounded=0;whiteSpace=wrap;html=1;" parent="1" vertex="1">
          <mxGeometry x="1085" y="-790" width="570" height="440" as="geometry" />
        </mxCell>
        <mxCell id="mvWhSziDv5Osz0h54IR4-90" value="" style="rounded=0;whiteSpace=wrap;html=1;" parent="1" vertex="1">
          <mxGeometry x="1085" y="-790" width="120" height="440" as="geometry" />
        </mxCell>
        <mxCell id="mvWhSziDv5Osz0h54IR4-93" value="&lt;h1 style=&quot;margin-top: 0px;&quot;&gt;&lt;span style=&quot;font-size: 18px;&quot;&gt;My account&lt;/span&gt;&lt;/h1&gt;" style="text;html=1;whiteSpace=wrap;overflow=hidden;rounded=0;" parent="1" vertex="1">
          <mxGeometry x="1215" y="-780" width="180" height="40" as="geometry" />
        </mxCell>
        <mxCell id="4SKJvG_wusuK_0YECNGo-37" style="edgeStyle=orthogonalEdgeStyle;rounded=0;orthogonalLoop=1;jettySize=auto;html=1;entryX=1;entryY=0.5;entryDx=0;entryDy=0;" parent="1" source="mvWhSziDv5Osz0h54IR4-103" target="4SKJvG_wusuK_0YECNGo-13" edge="1">
          <mxGeometry relative="1" as="geometry">
            <Array as="points">
              <mxPoint x="3070" y="2220" />
              <mxPoint x="3070" y="845" />
            </Array>
          </mxGeometry>
        </mxCell>
        <mxCell id="4SKJvG_wusuK_0YECNGo-38" value="&quot;I&#39;ll do it&quot; button clicked" style="edgeLabel;html=1;align=center;verticalAlign=middle;resizable=0;points=[];" parent="4SKJvG_wusuK_0YECNGo-37" vertex="1" connectable="0">
          <mxGeometry x="-0.0587" y="10" relative="1" as="geometry">
            <mxPoint as="offset" />
          </mxGeometry>
        </mxCell>
        <mxCell id="mvWhSziDv5Osz0h54IR4-103" value="" style="rounded=0;whiteSpace=wrap;html=1;" parent="1" vertex="1">
          <mxGeometry x="2047.5" y="2000" width="570" height="440" as="geometry" />
        </mxCell>
        <mxCell id="mvWhSziDv5Osz0h54IR4-104" value="" style="rounded=0;whiteSpace=wrap;html=1;" parent="1" vertex="1">
          <mxGeometry x="2047.5" y="2000" width="120" height="440" as="geometry" />
        </mxCell>
        <mxCell id="mvWhSziDv5Osz0h54IR4-107" value="I promise I&#39;ll do it..." style="html=1;shadow=0;dashed=0;shape=mxgraph.bootstrap.rrect;rSize=5;strokeColor=none;strokeWidth=1;fillColor=#33A64C;fontColor=#FFFFFF;whiteSpace=wrap;align=center;verticalAlign=middle;spacingLeft=0;fontStyle=0;fontSize=16;spacing=5;" parent="1" vertex="1">
          <mxGeometry x="2297.5" y="2355" width="200" height="40" as="geometry" />
        </mxCell>
        <mxCell id="mvWhSziDv5Osz0h54IR4-109" value="&lt;h1 style=&quot;margin-top: 0px;&quot;&gt;&lt;font style=&quot;font-size: 18px;&quot;&gt;&lt;font style=&quot;&quot;&gt;Roulette &lt;/font&gt;1&lt;/font&gt;&lt;/h1&gt;" style="text;html=1;whiteSpace=wrap;overflow=hidden;rounded=0;" parent="1" vertex="1">
          <mxGeometry x="2185" y="2010" width="180" height="40" as="geometry" />
        </mxCell>
        <mxCell id="mvWhSziDv5Osz0h54IR4-110" value="" style="endArrow=none;html=1;rounded=0;" parent="1" edge="1">
          <mxGeometry width="50" height="50" relative="1" as="geometry">
            <mxPoint x="2185" y="2061" as="sourcePoint" />
            <mxPoint x="2590" y="2060" as="targetPoint" />
          </mxGeometry>
        </mxCell>
        <mxCell id="mvWhSziDv5Osz0h54IR4-111" value="You will do:" style="text;html=1;align=center;verticalAlign=middle;whiteSpace=wrap;rounded=0;" parent="1" vertex="1">
          <mxGeometry x="2344" y="2120" width="107" height="30" as="geometry" />
        </mxCell>
        <mxCell id="mvWhSziDv5Osz0h54IR4-112" value="&lt;h1 style=&quot;margin-top: 0px;&quot;&gt;Read a book&lt;/h1&gt;" style="text;html=1;whiteSpace=wrap;overflow=hidden;rounded=0;" parent="1" vertex="1">
          <mxGeometry x="2325.5" y="2190" width="147" height="70" as="geometry" />
        </mxCell>
        <mxCell id="mvWhSziDv5Osz0h54IR4-114" value="" style="rounded=0;whiteSpace=wrap;html=1;" parent="1" vertex="1">
          <mxGeometry x="4920" y="-324.73" width="570" height="440" as="geometry" />
        </mxCell>
        <mxCell id="mvWhSziDv5Osz0h54IR4-115" value="" style="rounded=0;whiteSpace=wrap;html=1;" parent="1" vertex="1">
          <mxGeometry x="4920" y="-324.73" width="120" height="440" as="geometry" />
        </mxCell>
        <mxCell id="mvWhSziDv5Osz0h54IR4-116" value="Edit" style="html=1;shadow=0;dashed=0;shape=mxgraph.bootstrap.rrect;rSize=5;strokeColor=#001DBC;strokeWidth=1;fillColor=#0050ef;whiteSpace=wrap;align=center;verticalAlign=middle;spacingLeft=0;fontStyle=0;fontSize=16;spacing=5;fontColor=#ffffff;" parent="1" vertex="1">
          <mxGeometry x="5310" y="30.27000000000001" width="130" height="40" as="geometry" />
        </mxCell>
        <mxCell id="mvWhSziDv5Osz0h54IR4-117" value="" style="ellipse;whiteSpace=wrap;html=1;aspect=fixed;" parent="1" vertex="1">
          <mxGeometry x="5157" y="-212.73" width="216" height="216" as="geometry" />
        </mxCell>
        <mxCell id="mvWhSziDv5Osz0h54IR4-118" value="Spin ($1)" style="html=1;shadow=0;dashed=0;shape=mxgraph.bootstrap.rrect;rSize=5;strokeColor=none;strokeWidth=1;fillColor=#33A64C;fontColor=#FFFFFF;whiteSpace=wrap;align=center;verticalAlign=middle;spacingLeft=0;fontStyle=0;fontSize=16;spacing=5;" parent="1" vertex="1">
          <mxGeometry x="5100" y="30.27000000000001" width="200" height="40" as="geometry" />
        </mxCell>
        <mxCell id="mvWhSziDv5Osz0h54IR4-119" value="" style="ellipse;whiteSpace=wrap;html=1;aspect=fixed;" parent="1" vertex="1">
          <mxGeometry x="5237.5" y="-132.23" width="55" height="55" as="geometry" />
        </mxCell>
        <mxCell id="mvWhSziDv5Osz0h54IR4-120" value="&lt;h1 style=&quot;margin-top: 0px;&quot;&gt;&lt;font style=&quot;font-size: 18px;&quot;&gt;&lt;font style=&quot;&quot;&gt;Roulette &lt;/font&gt;1&lt;/font&gt;&lt;/h1&gt;" style="text;html=1;whiteSpace=wrap;overflow=hidden;rounded=0;" parent="1" vertex="1">
          <mxGeometry x="5062.5" y="-314.73" width="180" height="40" as="geometry" />
        </mxCell>
        <mxCell id="mvWhSziDv5Osz0h54IR4-121" value="" style="endArrow=none;html=1;rounded=0;" parent="1" edge="1">
          <mxGeometry width="50" height="50" relative="1" as="geometry">
            <mxPoint x="5057.5" y="-263.73" as="sourcePoint" />
            <mxPoint x="5462.5" y="-264.73" as="targetPoint" />
          </mxGeometry>
        </mxCell>
        <mxCell id="mvWhSziDv5Osz0h54IR4-122" value="Delete account" style="html=1;shadow=0;dashed=0;shape=mxgraph.bootstrap.rrect;rSize=5;strokeColor=none;strokeWidth=1;fillColor=#DB2843;fontColor=#FFFFFF;whiteSpace=wrap;align=center;verticalAlign=middle;spacingLeft=0;fontStyle=0;fontSize=16;spacing=5;" parent="1" vertex="1">
          <mxGeometry x="1215" y="-675" width="150" height="40" as="geometry" />
        </mxCell>
        <mxCell id="mvWhSziDv5Osz0h54IR4-163" value="" style="rounded=0;whiteSpace=wrap;html=1;" parent="1" vertex="1">
          <mxGeometry x="4925" y="205.27" width="570" height="440" as="geometry" />
        </mxCell>
        <mxCell id="mvWhSziDv5Osz0h54IR4-164" value="" style="rounded=0;whiteSpace=wrap;html=1;" parent="1" vertex="1">
          <mxGeometry x="4925" y="205.27" width="120" height="440" as="geometry" />
        </mxCell>
        <mxCell id="mvWhSziDv5Osz0h54IR4-165" value="Edit" style="html=1;shadow=0;dashed=0;shape=mxgraph.bootstrap.rrect;rSize=5;strokeColor=#001DBC;strokeWidth=1;fillColor=#0050ef;whiteSpace=wrap;align=center;verticalAlign=middle;spacingLeft=0;fontStyle=0;fontSize=16;spacing=5;fontColor=#ffffff;" parent="1" vertex="1">
          <mxGeometry x="5315" y="560.27" width="130" height="40" as="geometry" />
        </mxCell>
        <mxCell id="mvWhSziDv5Osz0h54IR4-166" value="" style="ellipse;whiteSpace=wrap;html=1;aspect=fixed;" parent="1" vertex="1">
          <mxGeometry x="5162" y="317.27" width="216" height="216" as="geometry" />
        </mxCell>
        <mxCell id="mvWhSziDv5Osz0h54IR4-167" value="Spin ($1)" style="html=1;shadow=0;dashed=0;shape=mxgraph.bootstrap.rrect;rSize=5;strokeColor=none;strokeWidth=1;fillColor=#33A64C;fontColor=#FFFFFF;whiteSpace=wrap;align=center;verticalAlign=middle;spacingLeft=0;fontStyle=0;fontSize=16;spacing=5;" parent="1" vertex="1">
          <mxGeometry x="5105" y="560.27" width="200" height="40" as="geometry" />
        </mxCell>
        <mxCell id="mvWhSziDv5Osz0h54IR4-168" value="" style="ellipse;whiteSpace=wrap;html=1;aspect=fixed;" parent="1" vertex="1">
          <mxGeometry x="5242.5" y="397.77" width="55" height="55" as="geometry" />
        </mxCell>
        <mxCell id="mvWhSziDv5Osz0h54IR4-169" value="&lt;h1 style=&quot;margin-top: 0px;&quot;&gt;&lt;font style=&quot;font-size: 18px;&quot;&gt;&lt;font style=&quot;&quot;&gt;Roulette &lt;/font&gt;1&lt;/font&gt;&lt;/h1&gt;" style="text;html=1;whiteSpace=wrap;overflow=hidden;rounded=0;" parent="1" vertex="1">
          <mxGeometry x="5062.5" y="215.27" width="180" height="40" as="geometry" />
        </mxCell>
        <mxCell id="mvWhSziDv5Osz0h54IR4-170" value="" style="endArrow=none;html=1;rounded=0;" parent="1" edge="1">
          <mxGeometry width="50" height="50" relative="1" as="geometry">
            <mxPoint x="5062.5" y="266.27" as="sourcePoint" />
            <mxPoint x="5467.5" y="265.27" as="targetPoint" />
          </mxGeometry>
        </mxCell>
        <mxCell id="mvWhSziDv5Osz0h54IR4-174" value="Purchase 1 spin&lt;div&gt;&lt;br&gt;&lt;/div&gt;&lt;div&gt;PAYPAL&lt;/div&gt;" style="rounded=1;whiteSpace=wrap;html=1;" parent="1" vertex="1">
          <mxGeometry x="5105" y="317.27" width="320" height="180" as="geometry" />
        </mxCell>
        <mxCell id="RssXFwSzg0zAoP-7W2g_-1" value="" style="rounded=0;whiteSpace=wrap;html=1;" parent="1" vertex="1">
          <mxGeometry x="2032.5" y="1305" width="570" height="440" as="geometry" />
        </mxCell>
        <mxCell id="RssXFwSzg0zAoP-7W2g_-2" value="" style="rounded=0;whiteSpace=wrap;html=1;" parent="1" vertex="1">
          <mxGeometry x="2032.5" y="1305" width="120" height="440" as="geometry" />
        </mxCell>
        <mxCell id="RssXFwSzg0zAoP-7W2g_-3" value="Edit" style="html=1;shadow=0;dashed=0;shape=mxgraph.bootstrap.rrect;rSize=5;strokeColor=#666666;strokeWidth=1;fillColor=#f5f5f5;whiteSpace=wrap;align=center;verticalAlign=middle;spacingLeft=0;fontStyle=0;fontSize=16;spacing=5;fontColor=#333333;" parent="1" vertex="1">
          <mxGeometry x="2422.5" y="1660" width="130" height="40" as="geometry" />
        </mxCell>
        <mxCell id="RssXFwSzg0zAoP-7W2g_-4" value="" style="ellipse;whiteSpace=wrap;html=1;aspect=fixed;" parent="1" vertex="1">
          <mxGeometry x="2269.5" y="1417" width="216" height="216" as="geometry" />
        </mxCell>
        <mxCell id="RssXFwSzg0zAoP-7W2g_-5" value="Spinning..." style="html=1;shadow=0;dashed=0;shape=mxgraph.bootstrap.rrect;rSize=5;strokeColor=#666666;strokeWidth=1;fillColor=#f5f5f5;fontColor=#333333;whiteSpace=wrap;align=center;verticalAlign=middle;spacingLeft=0;fontStyle=0;fontSize=16;spacing=5;" parent="1" vertex="1">
          <mxGeometry x="2212.5" y="1660" width="200" height="40" as="geometry" />
        </mxCell>
        <mxCell id="RssXFwSzg0zAoP-7W2g_-6" value="" style="ellipse;whiteSpace=wrap;html=1;aspect=fixed;" parent="1" vertex="1">
          <mxGeometry x="2350" y="1497.5" width="55" height="55" as="geometry" />
        </mxCell>
        <mxCell id="RssXFwSzg0zAoP-7W2g_-7" value="&lt;h1 style=&quot;margin-top: 0px;&quot;&gt;&lt;font style=&quot;font-size: 18px;&quot;&gt;&lt;font style=&quot;&quot;&gt;Roulette &lt;/font&gt;1&lt;/font&gt;&lt;/h1&gt;" style="text;html=1;whiteSpace=wrap;overflow=hidden;rounded=0;" parent="1" vertex="1">
          <mxGeometry x="2170" y="1315" width="180" height="40" as="geometry" />
        </mxCell>
        <mxCell id="RssXFwSzg0zAoP-7W2g_-8" value="" style="endArrow=none;html=1;rounded=0;" parent="1" edge="1">
          <mxGeometry width="50" height="50" relative="1" as="geometry">
            <mxPoint x="2170" y="1366" as="sourcePoint" />
            <mxPoint x="2575" y="1365" as="targetPoint" />
          </mxGeometry>
        </mxCell>
        <mxCell id="4SKJvG_wusuK_0YECNGo-25" style="edgeStyle=orthogonalEdgeStyle;rounded=0;orthogonalLoop=1;jettySize=auto;html=1;entryX=0.75;entryY=0;entryDx=0;entryDy=0;" parent="1" source="4SKJvG_wusuK_0YECNGo-16" target="GNKquX3tjcensdPC8M7u-1" edge="1">
          <mxGeometry relative="1" as="geometry">
            <Array as="points">
              <mxPoint x="2325" y="-940" />
              <mxPoint x="550" y="-940" />
            </Array>
          </mxGeometry>
        </mxCell>
        <mxCell id="4SKJvG_wusuK_0YECNGo-26" value="account deleted" style="edgeLabel;html=1;align=center;verticalAlign=middle;resizable=0;points=[];" parent="4SKJvG_wusuK_0YECNGo-25" vertex="1" connectable="0">
          <mxGeometry x="-0.2424" y="-7" relative="1" as="geometry">
            <mxPoint as="offset" />
          </mxGeometry>
        </mxCell>
        <mxCell id="4SKJvG_wusuK_0YECNGo-16" value="Account page" style="rounded=0;whiteSpace=wrap;html=1;fillColor=#f5f5f5;fontColor=#333333;strokeColor=#666666;align=left;verticalAlign=top;" parent="1" vertex="1">
          <mxGeometry x="1985" y="-830" width="680" height="550" as="geometry" />
        </mxCell>
        <mxCell id="4SKJvG_wusuK_0YECNGo-17" value="" style="rounded=0;whiteSpace=wrap;html=1;" parent="1" vertex="1">
          <mxGeometry x="2040" y="-790" width="570" height="440" as="geometry" />
        </mxCell>
        <mxCell id="4SKJvG_wusuK_0YECNGo-18" value="" style="rounded=0;whiteSpace=wrap;html=1;" parent="1" vertex="1">
          <mxGeometry x="2040" y="-790" width="120" height="440" as="geometry" />
        </mxCell>
        <mxCell id="4SKJvG_wusuK_0YECNGo-19" value="&lt;h1 style=&quot;margin-top: 0px;&quot;&gt;&lt;span style=&quot;font-size: 18px;&quot;&gt;My account&lt;/span&gt;&lt;/h1&gt;" style="text;html=1;whiteSpace=wrap;overflow=hidden;rounded=0;" parent="1" vertex="1">
          <mxGeometry x="2170" y="-780" width="180" height="40" as="geometry" />
        </mxCell>
        <mxCell id="4SKJvG_wusuK_0YECNGo-20" value="Delete account" style="html=1;shadow=0;dashed=0;shape=mxgraph.bootstrap.rrect;rSize=5;strokeColor=none;strokeWidth=1;fillColor=#DB2843;fontColor=#FFFFFF;whiteSpace=wrap;align=center;verticalAlign=middle;spacingLeft=0;fontStyle=0;fontSize=16;spacing=5;" parent="1" vertex="1">
          <mxGeometry x="2170" y="-675" width="150" height="40" as="geometry" />
        </mxCell>
        <mxCell id="4SKJvG_wusuK_0YECNGo-22" value="&lt;font style=&quot;font-size: 18px;&quot;&gt;This action is permanent. Are you sure you want to delete your account?&lt;/font&gt;" style="rounded=1;whiteSpace=wrap;html=1;" parent="1" vertex="1">
          <mxGeometry x="2125" y="-610" width="425" height="180" as="geometry" />
        </mxCell>
        <mxCell id="4SKJvG_wusuK_0YECNGo-23" value="Delete" style="html=1;shadow=0;dashed=0;shape=mxgraph.bootstrap.rrect;rSize=5;strokeColor=none;strokeWidth=1;fillColor=#DB2843;fontColor=#FFFFFF;whiteSpace=wrap;align=center;verticalAlign=middle;spacingLeft=0;fontStyle=0;fontSize=16;spacing=5;" parent="1" vertex="1">
          <mxGeometry x="2436" y="-480" width="80" height="40" as="geometry" />
        </mxCell>
        <mxCell id="4SKJvG_wusuK_0YECNGo-24" value="Cancel" style="html=1;shadow=0;dashed=0;shape=mxgraph.bootstrap.rrect;rSize=5;strokeColor=none;strokeWidth=1;fillColor=#343A40;fontColor=#ffffff;whiteSpace=wrap;align=center;verticalAlign=middle;spacingLeft=0;fontStyle=0;fontSize=16;spacing=5;" parent="1" vertex="1">
          <mxGeometry x="2355" y="-480" width="60" height="40" as="geometry" />
        </mxCell>
        <mxCell id="j6sFRkjhFC-ntae6Wp6h-3" value="Routelle page (no more spins)" style="rounded=0;whiteSpace=wrap;html=1;fillColor=#f5f5f5;fontColor=#333333;strokeColor=#666666;align=left;verticalAlign=top;" vertex="1" parent="1">
          <mxGeometry x="3170" y="575.2733333333335" width="680" height="550" as="geometry" />
        </mxCell>
        <mxCell id="j6sFRkjhFC-ntae6Wp6h-5" value="" style="rounded=0;whiteSpace=wrap;html=1;" vertex="1" parent="1">
          <mxGeometry x="3230" y="645.2733333333335" width="570" height="440" as="geometry" />
        </mxCell>
        <mxCell id="j6sFRkjhFC-ntae6Wp6h-6" value="" style="rounded=0;whiteSpace=wrap;html=1;" vertex="1" parent="1">
          <mxGeometry x="3230" y="645.2733333333335" width="120" height="440" as="geometry" />
        </mxCell>
        <mxCell id="j6sFRkjhFC-ntae6Wp6h-7" value="Edit" style="html=1;shadow=0;dashed=0;shape=mxgraph.bootstrap.rrect;rSize=5;strokeColor=#001DBC;strokeWidth=1;fillColor=#0050ef;whiteSpace=wrap;align=center;verticalAlign=middle;spacingLeft=0;fontStyle=0;fontSize=16;spacing=5;fontColor=#ffffff;" vertex="1" parent="1">
          <mxGeometry x="3620" y="1000.2733333333335" width="130" height="40" as="geometry" />
        </mxCell>
        <mxCell id="j6sFRkjhFC-ntae6Wp6h-8" value="" style="ellipse;whiteSpace=wrap;html=1;aspect=fixed;" vertex="1" parent="1">
          <mxGeometry x="3467" y="757.2733333333335" width="216" height="216" as="geometry" />
        </mxCell>
        <mxCell id="j6sFRkjhFC-ntae6Wp6h-9" value="Spin (0)" style="html=1;shadow=0;dashed=0;shape=mxgraph.bootstrap.rrect;rSize=5;strokeColor=#666666;strokeWidth=1;fillColor=#f5f5f5;fontColor=#333333;whiteSpace=wrap;align=center;verticalAlign=middle;spacingLeft=0;fontStyle=0;fontSize=16;spacing=5;" vertex="1" parent="1">
          <mxGeometry x="3410" y="1000.2733333333335" width="200" height="40" as="geometry" />
        </mxCell>
        <mxCell id="j6sFRkjhFC-ntae6Wp6h-10" value="" style="ellipse;whiteSpace=wrap;html=1;aspect=fixed;" vertex="1" parent="1">
          <mxGeometry x="3547.5" y="837.7733333333335" width="55" height="55" as="geometry" />
        </mxCell>
        <mxCell id="j6sFRkjhFC-ntae6Wp6h-11" value="&lt;h1 style=&quot;margin-top: 0px;&quot;&gt;&lt;font style=&quot;font-size: 18px;&quot;&gt;&lt;font style=&quot;&quot;&gt;Roulette &lt;/font&gt;1&lt;/font&gt;&lt;/h1&gt;" style="text;html=1;whiteSpace=wrap;overflow=hidden;rounded=0;" vertex="1" parent="1">
          <mxGeometry x="3367.5" y="655.2733333333335" width="180" height="40" as="geometry" />
        </mxCell>
        <mxCell id="j6sFRkjhFC-ntae6Wp6h-12" value="" style="endArrow=none;html=1;rounded=0;" edge="1" parent="1">
          <mxGeometry width="50" height="50" relative="1" as="geometry">
            <mxPoint x="3367.5" y="706.2733333333335" as="sourcePoint" />
            <mxPoint x="3772.5" y="705.2733333333335" as="targetPoint" />
          </mxGeometry>
        </mxCell>
        <mxCell id="j6sFRkjhFC-ntae6Wp6h-13" value="You have used all your spins for today, go do your tasks! See you tomorrow!" style="text;html=1;align=center;verticalAlign=middle;whiteSpace=wrap;rounded=0;" vertex="1" parent="1">
          <mxGeometry x="3470" y="1050" width="220" height="30" as="geometry" />
        </mxCell>
        <mxCell id="j6sFRkjhFC-ntae6Wp6h-14" style="edgeStyle=orthogonalEdgeStyle;rounded=0;orthogonalLoop=1;jettySize=auto;html=1;entryX=0.559;entryY=1.009;entryDx=0;entryDy=0;entryPerimeter=0;" edge="1" parent="1" source="4SKJvG_wusuK_0YECNGo-34" target="j6sFRkjhFC-ntae6Wp6h-3">
          <mxGeometry relative="1" as="geometry">
            <Array as="points">
              <mxPoint x="3550" y="2350" />
            </Array>
          </mxGeometry>
        </mxCell>
        <mxCell id="j6sFRkjhFC-ntae6Wp6h-16" value="&quot;I&#39;ll do it&quot; button clicked (no more spins)" style="edgeLabel;html=1;align=center;verticalAlign=middle;resizable=0;points=[];" vertex="1" connectable="0" parent="j6sFRkjhFC-ntae6Wp6h-14">
          <mxGeometry x="-0.5797" y="-8" relative="1" as="geometry">
            <mxPoint as="offset" />
          </mxGeometry>
        </mxCell>
      </root>
    </mxGraphModel>
  </diagram>
</mxfile>
